{"title":"It 2017 1080p BluRay 6CH (5.1) AAC x264 - EiE","magnet":"magnet:?xt=urn:btih:a7c9813ec74f758c608bb980fef815dbc50562d5&dn=It+2017+1080p+BluRay+6CH+%285.1%29+AAC+x264+-+EiE&tr=udp%3A%2F%2Ftracker.leechers-paradise.org%3A6969&tr=udp%3A%2F%2Fzer0day.ch%3A1337&tr=udp%3A%2F%2Fopen.demonii.com%3A1337&tr=udp%3A%2F%2Ftracker.coppersurfer.tk%3A6969&tr=udp%3A%2F%2Fexodus.desync.com%3A6969","uploader":"samcode4u","categoryP":"video","categoryS":"hd___movies","size":"2146945129","seeders":"1","leechers":"9","description":"It 2017 1080p BluRay 6CH (5.1) AAC x264 - EiE\r\n\r\n\r\nMovies : Thriller/Drama : HD 1080p / 1080i : English\r\n\r\n\r\nScreenshots:\r\n <a href=\"\nhttps://lensdump.com/i/4UaTQ\" rel=\"nofollow\" target=\"_NEW\">\nhttps://lensdump.com/i/4UaTQ</a>\r\n <a href=\"\nhttps://lensdump.com/i/4Uh7a\" rel=\"nofollow\" target=\"_NEW\">\nhttps://lensdump.com/i/4Uh7a</a>\r\n <a href=\"\nhttps://lensdump.com/i/4c2Ue\" rel=\"nofollow\" target=\"_NEW\">\nhttps://lensdump.com/i/4c2Ue</a>\r\n <a href=\"\nhttps://lensdump.com/i/4cAZk\" rel=\"nofollow\" target=\"_NEW\">\nhttps://lensdump.com/i/4cAZk</a>\r\n\r\n\r\n\r\nVideo\r\nID                                       : 1\r\nFormat                                   : AVC\r\nFormat/Info                              : Advanced Video Codec\r\nFormat settings, CABAC                   : Yes\r\nFormat settings, ReFrames                : 4 frames\r\nCodec ID                                 : avc1\r\nCodec ID/Info                            : Advanced Video Coding\r\nDuration                                 : 2h 14mn\r\nBit rate                                 : 1 865 Kbps\r\nMaximum bit rate                         : 14.6 Mbps\r\nWidth                                    : 1 920 pixels\r\nHeight                                   : 800 pixels\r\nDisplay aspect ratio                     : 2.40:1\r\nFrame rate mode                          : Constant\r\nFrame rate                               : 23.976 fps\r\nColor space                              : YUV\r\nChroma subsampling                       : 4:2:0\r\nBit depth                                : 8 bits\r\nScan type                                : Progressive\r\nBits/(Pixel*Frame)                       : 0.051\r\nStream size                              : 1.75 GiB (88%)\r\n\r\n\r\nAudio\r\nID                                       : 2\r\nFormat                                   : AAC\r\nFormat/Info                              : Advanced Audio Codec\r\nFormat profile                           : LC\r\nCodec ID                                 : 40\r\nDuration                                 : 2h 14mn\r\nBit rate mode                            : Variable\r\nBit rate                                 : 257 Kbps\r\nMaximum bit rate                         : 374 Kbps\r\nChannel(s)                               : 6 channels\r\nChannel positions                        : Front: L C R, Side: L R, LFE\r\nSampling rate                            : 48.0 KHz\r\nCompression mode                         : Lossy\r\nStream size                              : 248 MiB (12%)\r\nLanguage                                 : English","last_updated":"2017-12-19T12:02:55.664Z","parsed":{"xt":"urn:btih:a7c9813ec74f758c608bb980fef815dbc50562d5","dn":"It 2017 1080p BluRay 6CH (5.1) AAC x264 - EiE","tr":["udp://exodus.desync.com:6969","udp://open.demonii.com:1337","udp://tracker.coppersurfer.tk:6969","udp://tracker.leechers-paradise.org:6969","udp://zer0day.ch:1337"],"infoHash":"a7c9813ec74f758c608bb980fef815dbc50562d5","infoHashBuffer":{"type":"Buffer","data":[167,201,129,62,199,79,117,140,96,139,185,128,254,248,21,219,197,5,98,213]},"name":"It 2017 1080p BluRay 6CH (5.1) AAC x264 - EiE","announce":["udp://exodus.desync.com:6969","udp://open.demonii.com:1337","udp://tracker.coppersurfer.tk:6969","udp://tracker.leechers-paradise.org:6969","udp://zer0day.ch:1337"],"urlList":[]}}